<?xml version="1.0" encoding="UTF-8" standalone="no"?>
<svg xmlns:rdf="http://www.w3.org/1999/02/22-rdf-syntax-ns#" xmlns="http://www.w3.org/2000/svg" xml:space="preserve" height="45.268837" width="134.99582" version="1.1" xmlns:cc="http://creativecommons.org/ns#" xmlns:dc="http://purl.org/dc/elements/1.1/" viewBox="0 0 134.99582 45.268838"><style type="text/css">
.a{fill:#FFFFFF;}
.b{fill:#F48120;}
.c{fill:#FAAD3F;}
.d{fill:#404041;}
</style><g transform="matrix(1.3214578,0,0,1.3214578,-4.6536854,-4.2572481)"><polygon points="98.6 14.2 93 12.9 92 12.5 66.3 12.7 66.3 25.1 98.6 25.2" fill="#fff" class="a"/><path fill="#f48120" class="b" d="m88.1 24c0.3-1 0.2-2-0.3-2.6s-1.2-1-2.1-1.1l-17.4-0.2c-0.1 0-0.2-0.1-0.3-0.1-0.1-0.1-0.1-0.2 0-0.3 0.1-0.2 0.2-0.3 0.4-0.3l17.5-0.2c2.1-0.1 4.3-1.8 5.1-3.8l1-2.6c0-0.1 0.1-0.2 0-0.3-1.1-5.1-5.7-8.9-11.1-8.9-5 0-9.3 3.2-10.8 7.7-1-0.7-2.2-1.1-3.6-1-2.4 0.2-4.3 2.2-4.6 4.6-0.1 0.6 0 1.2 0.1 1.8-3.9 0.1-7.1 3.3-7.1 7.3 0 0.4 0 0.7 0.1 1.1 0 0.2 0.2 0.3 0.3 0.3h32.1c0.2 0 0.4-0.1 0.4-0.3l0.3-1.1z"/><path fill="#faad3f" class="c" d="m93.6 12.8h-0.5c-0.1 0-0.2 0.1-0.3 0.2l-0.7 2.4c-0.3 1-0.2 2 0.3 2.6s1.2 1 2.1 1.1l3.7 0.2c0.1 0 0.2 0.1 0.3 0.1 0.1 0.1 0.1 0.2 0 0.3-0.1 0.2-0.2 0.3-0.4 0.3l-3.8 0.2c-2.1 0.1-4.3 1.8-5.1 3.8l-0.2 0.9c-0.1 0.1 0 0.3 0.2 0.3h13.2c0.2 0 0.3-0.1 0.3-0.3 0.2-0.8 0.4-1.7 0.4-2.6 0-5.2-4.3-9.5-9.5-9.5"/><g fill="#404041"><path class="d" d="m104.4 30.8c-0.5 0-0.9-0.4-0.9-0.9s0.4-0.9 0.9-0.9 0.9 0.4 0.9 0.9-0.4 0.9-0.9 0.9m0-1.6c-0.4 0-0.7 0.3-0.7 0.7s0.3 0.7 0.7 0.7 0.7-0.3 0.7-0.7-0.3-0.7-0.7-0.7m0.4 1.2h-0.2l-0.2-0.3h-0.2v0.3h-0.2v-0.9h0.5c0.2 0 0.3 0.1 0.3 0.3 0 0.1-0.1 0.2-0.2 0.3l0.2 0.3zm-0.3-0.5c0.1 0 0.1 0 0.1-0.1s-0.1-0.1-0.1-0.1h-0.3v0.3h0.3z"/><polygon points="14.8 29 17 29 17 35 20.8 35 20.8 36.9 14.8 36.9" class="d"/><path class="d" d="m23.1 32.9c0-2.3 1.8-4.1 4.3-4.1s4.2 1.8 4.2 4.1-1.8 4.1-4.3 4.1c-2.4 0-4.2-1.8-4.2-4.1m6.3 0c0-1.2-0.8-2.2-2-2.2s-2 1-2 2.1 0.8 2.1 2 2.1c1.2 0.2 2-0.8 2-2"/><path class="d" d="m34.3 33.4v-4.4h2.2v4.4c0 1.1 0.6 1.7 1.5 1.7s1.5-0.5 1.5-1.6v-4.5h2.2v4.4c0 2.6-1.5 3.7-3.7 3.7-2.3-0.1-3.7-1.2-3.7-3.7"/><path class="d" d="m45 29h3.1c2.8 0 4.5 1.6 4.5 3.9s-1.7 4-4.5 4h-3v-7.9zm3.1 5.9c1.3 0 2.2-0.7 2.2-2s-0.9-2-2.2-2h-0.9v4h0.9z"/><polygon points="57.9 32.2 61.6 32.2 61.6 34 57.9 34 57.9 36.9 55.7 36.9 55.7 29 62 29 62 30.9 57.9 30.9" class="d"/><polygon points="65.1 29 67.3 29 67.3 35 71.1 35 71.1 36.9 65.1 36.9" class="d"/><path class="d" d="m76.8 28.9h2.2l3.4 8h-2.4l-0.6-1.4h-3.1l-0.6 1.4h-2.3l3.4-8zm2 4.9-0.9-2.2-0.9 2.2h1.8z"/><path class="d" d="m85.2 29h3.7c1.2 0 2 0.3 2.6 0.9 0.5 0.5 0.7 1.1 0.7 1.8 0 1.2-0.6 2-1.6 2.4l1.9 2.8h-2.5l-1.6-2.4h-1v2.4h-2.2v-7.9zm3.6 3.8c0.7 0 1.2-0.4 1.2-0.9 0-0.6-0.5-0.9-1.2-0.9h-1.4v1.9h1.4z"/><polygon points="95.3 29 101.7 29 101.7 30.8 97.5 30.8 97.5 32 101.3 32 101.3 33.8 97.5 33.8 97.5 35 101.8 35 101.8 36.9 95.3 36.9" class="d"/><path class="d" d="m10 33.9c-0.3 0.7-1 1.2-1.8 1.2-1.2 0-2-1-2-2.1s0.8-2.1 2-2.1c0.9 0 1.6 0.6 1.9 1.3h2.3c-0.4-1.9-2-3.3-4.2-3.3-2.4 0-4.3 1.8-4.3 4.1s1.8 4.1 4.2 4.1c2.1 0 3.7-1.4 4.2-3.2h-2.3z"/></g></g></svg>