<?xml version="1.0" encoding="UTF-8" standalone="no"?>
<!-- Generator: Adobe Illustrator 16.0.4, SVG Export Plug-In . SVG Version: 6.00 Build 0)  -->

<svg
   xmlns:dc="http://purl.org/dc/elements/1.1/"
   xmlns:cc="http://creativecommons.org/ns#"
   xmlns:rdf="http://www.w3.org/1999/02/22-rdf-syntax-ns#"
   xmlns:svg="http://www.w3.org/2000/svg"
   xmlns="http://www.w3.org/2000/svg"
   xmlns:sodipodi="http://sodipodi.sourceforge.net/DTD/sodipodi-0.dtd"
   xmlns:inkscape="http://www.inkscape.org/namespaces/inkscape"
   version="1.1"
   id="Layer_1"
   x="0px"
   y="0px"
   width="40px"
   height="40px"
   viewBox="0 0 40 40"
   enable-background="new 0 0 40 40"
   xml:space="preserve"
   sodipodi:docname="travis-ci-logo-head.svg"
   inkscape:version="0.92.3 (2405546, 2018-03-11)"><metadata
   id="metadata35"><rdf:RDF><cc:Work
       rdf:about=""><dc:format>image/svg+xml</dc:format><dc:type
         rdf:resource="http://purl.org/dc/dcmitype/StillImage" /></cc:Work></rdf:RDF></metadata><defs
   id="defs33">
	
	
	
	
	
	
	
	
	
	
	
	
	
</defs><sodipodi:namedview
   pagecolor="#ffffff"
   bordercolor="#666666"
   borderopacity="1"
   objecttolerance="10"
   gridtolerance="10"
   guidetolerance="10"
   inkscape:pageopacity="0"
   inkscape:pageshadow="2"
   inkscape:window-width="926"
   inkscape:window-height="480"
   id="namedview31"
   showgrid="false"
   inkscape:zoom="5.9"
   inkscape:cx="20"
   inkscape:cy="20"
   inkscape:window-x="0"
   inkscape:window-y="34"
   inkscape:window-maximized="0"
   inkscape:current-layer="Layer_1" />
<g
   id="g868"><path
     d="m 23.24,36.316 c -0.273,-0.283 -0.516,-0.548 -0.708,-0.762 -0.093,0.214 -0.216,0.496 -0.379,0.859 h 0.049 c 0.13,0 0.272,-0.016 0.408,-0.021 0.207,-0.017 0.417,-0.043 0.63,-0.076 z"
     id="path2"
     inkscape:connector-curvature="0"
     style="fill:none" /><path
     d="m 33.202,28.414 -0.81,0.566 c -0.056,0.038 -0.121,0.057 -0.188,0.049 l -8.062,-0.917 -0.12,-0.013 -0.468,-0.053 c -0.108,-0.013 -0.199,-0.089 -0.231,-0.195 l -1.262,-4.153 c -0.211,-0.028 -0.399,-0.043 -0.556,-0.043 -0.16,0 -0.347,0.015 -0.559,0.043 l -1.226,4.033 c -0.029,0.095 -0.105,0.167 -0.202,0.188 l -0.587,0.132 -8.007,1.782 c -0.021,0.004 -0.042,0.006 -0.061,0.006 -0.055,0 -0.111,-0.017 -0.158,-0.05 L 10.393,29.572 9.458,28.916 V 28.914 L 9.08,28.65 c 0.027,0.085 0.058,0.17 0.087,0.25 v 0.002 c 0.026,0.079 0.142,0.412 0.35,0.902 0.357,0.841 0.988,2.147 1.919,3.436 1.576,-0.463 2.939,-0.896 3.375,-1.034 0.887,-1.369 2.151,-2.726 3.049,-2.773 0.155,-0.008 0.317,-0.012 0.475,-0.012 0.44,0 0.861,0.032 1.25,0.077 -0.331,-0.299 -0.398,-0.651 -0.447,-0.808 0,0 1.147,0.897 2.605,0.709 1.462,-0.187 2.368,-1.03 2.368,-1.03 0,0 -0.005,0.613 -0.642,1.089 1.224,-0.369 1.729,-0.495 2.077,-0.495 0.382,0 0.569,0.158 0.734,0.298 0.032,0.026 0.064,0.056 0.101,0.084 0.939,0.741 2.07,1.639 2.403,1.903 0.383,0.043 1.596,0.182 2.361,0.253 0.441,0.041 0.84,0.073 1.231,0.073 0.126,0 0.244,-0.005 0.354,-0.012 0.404,-0.772 0.775,-1.627 1.106,-2.569 0.082,-0.237 0.164,-0.478 0.241,-0.726 0.053,-0.189 0.103,-0.381 0.147,-0.574 l -0.277,0.195 z"
     id="path4"
     inkscape:connector-curvature="0"
     style="fill:none" /><path
     d="m 13.268,20.546 c -1.886,0.211 -3.458,0.46 -4.632,0.677 l 0.602,4.873 2.069,1.449 6.565,-1.459 1.23,-4.051 c 0.02,-0.066 0.064,-0.122 0.124,-0.156 0.019,-0.012 0.04,-0.021 0.063,-0.027 0.036,-0.01 0.694,-0.199 1.453,-0.291 l 1.203,-0.728 c 0.362,-0.218 0.71,-0.468 1.04,-0.734 -0.474,-0.008 -0.952,-0.015 -1.44,-0.015 -2.006,0 -3.88,0.083 -5.578,0.211 -1.703,0.833 -2.746,1.518 -2.771,1.534 l -1.634,1.091 1.123,-1.612 c 0.183,-0.268 0.38,-0.522 0.583,-0.762 z m 0.451,4.371 c -0.082,-0.182 -0.133,-0.432 -0.148,-0.779 -0.049,-1.333 0.772,-2.427 1.622,-2.435 0.851,-0.009 1.443,1.071 1.457,2.405 0.011,1.334 -0.694,1.254 -1.545,1.262 -0.086,0.003 -0.167,0.005 -0.25,0.005 -0.095,0.002 -0.187,0.004 -0.274,0.002 -0.825,-0.002 -1.353,-0.038 -1.819,0.213 0.011,-0.029 0.217,-0.486 0.957,-0.673 z"
     id="path6"
     inkscape:connector-curvature="0"
     style="fill:none" /><path
     d="m 23.596,36.684 c -0.316,0.063 -0.636,0.111 -0.966,0.139 -0.139,0.006 -0.27,0.018 -0.412,0.018 L 22.002,36.843 21.92,36.84 c -0.868,1.292 -2.801,1.546 -2.89,1.558 -0.081,0.009 -0.145,0.02 -0.235,0.037 1.077,0.295 2.177,0.422 3.26,0.35 1.087,-0.072 2.498,-0.309 3.997,-0.916 C 25.16,37.804 24.35,37.433 23.697,36.786 23.663,36.75 23.63,36.717 23.596,36.684 Z"
     id="path8"
     inkscape:connector-curvature="0"
     style="fill:none" /><circle
     cx="27.497"
     cy="22.653999"
     r="0.43399999"
     id="circle10"
     style="fill:none" /><path
     d="M 25.712,7.299 H 23.323 V 6.315 h -0.538 v 4.547 h 0.812 v 2.543 H 19.42 v -2.543 h 0.811 V 6.315 H 19.694 V 7.298 H 17.307 V 3.931 h 8.404 v 3.368 z"
     id="path12"
     inkscape:connector-curvature="0"
     style="fill:none" /><circle
     cx="15.324"
     cy="22.976"
     r="0.43399999"
     id="circle14"
     style="fill:none" /><path
     d="m 6.963,27.525 1.39,0.947 C 8.328,28.391 8.306,28.311 8.282,28.23 8.265,28.171 8.247,28.114 8.23,28.057 L 7.209,27.34 C 7.146,27.296 7.105,27.227 7.094,27.15 L 6.596,23.103 6.335,25.587 Z"
     id="path16"
     inkscape:connector-curvature="0"
     style="fill:none" /><path
     d="m 22.164,21.523 -0.158,0.012 c 0.861,0.073 1.672,0.305 1.713,0.317 0.09,0.026 0.159,0.094 0.188,0.184 l 1.225,4.03 6.557,0.745 2.086,-1.459 0.591,-4.146 c -1.67,-0.305 -4.111,-0.671 -7.103,-0.9 -2.702,0.931 -4.964,1.208 -5.099,1.217 z m 7.134,2.211 c 0.028,0.368 -0.011,0.636 -0.103,0.834 0.79,-0.094 0.97,0.441 0.979,0.474 -0.573,-0.276 -1.2,0.073 -2.342,0.095 -0.849,0.031 -1.562,0.041 -1.609,-1.292 -0.047,-1.336 0.498,-2.441 1.347,-2.471 0.849,-0.029 1.625,1.028 1.728,2.36 z"
     id="path18"
     inkscape:connector-curvature="0"
     style="fill:none" /><path
     d="m 26.223,23.845 c 0.048,1.333 0.761,1.323 1.609,1.292 1.142,-0.021 1.769,-0.371 2.342,-0.095 -0.009,-0.032 -0.188,-0.567 -0.979,-0.474 0.092,-0.198 0.131,-0.466 0.103,-0.834 -0.104,-1.332 -0.879,-2.39 -1.729,-2.36 -0.848,0.029 -1.393,1.135 -1.346,2.471 z m 1.266,-1.625 c 0.239,-0.005 0.438,0.186 0.441,0.426 0.005,0.239 -0.187,0.438 -0.425,0.442 -0.24,0.004 -0.438,-0.188 -0.442,-0.428 -0.005,-0.239 0.187,-0.436 0.426,-0.44 z"
     id="path20"
     inkscape:connector-curvature="0"
     style="fill:#000000" /><path
     d="m 14.581,25.377 c 0.088,0.002 0.18,0 0.274,-0.002 0.082,0 0.164,-0.002 0.25,-0.005 0.851,-0.008 1.556,0.072 1.545,-1.262 -0.014,-1.334 -0.606,-2.414 -1.457,-2.405 -0.849,0.008 -1.671,1.102 -1.622,2.435 0.015,0.348 0.066,0.598 0.148,0.779 -0.74,0.187 -0.945,0.644 -0.957,0.673 0.466,-0.251 0.993,-0.215 1.819,-0.213 z m 0.731,-2.835 c 0.24,-0.008 0.439,0.182 0.447,0.422 0.006,0.239 -0.184,0.439 -0.423,0.445 -0.24,0.008 -0.44,-0.183 -0.446,-0.422 -0.007,-0.239 0.182,-0.44 0.422,-0.445 z"
     id="path22"
     inkscape:connector-curvature="0"
     style="fill:#000000" /><polygon
     points="19.695,7.343 20.232,7.343 20.232,11.889 19.421,11.889 19.421,14.432 23.598,14.432 23.598,11.889 22.786,11.889 22.786,7.343 23.324,7.343 23.324,8.327 25.712,8.327 25.712,4.958 17.309,4.958 17.309,8.327 19.695,8.327 "
     id="polygon24"
     style="fill:#000000" /><path
     d="m 39.689,14.823 c -0.015,-0.289 -0.043,-0.577 -0.082,-0.861 -0.02,-0.144 -0.041,-0.288 -0.071,-0.429 -0.028,-0.146 -0.056,-0.281 -0.103,-0.44 l -0.03,-0.112 -0.079,-0.063 C 38.869,12.562 38.38,12.292 37.883,12.054 37.472,11.86 37.055,11.691 36.634,11.536 35.457,8.272 33.437,5.378 30.778,3.363 28.031,1.279 24.8,0.176 21.436,0.176 18.07,0.176 14.84,1.279 12.092,3.363 9.999,4.949 8.304,7.081 7.103,9.508 H 7.097 C 6.772,10.165 6.48,10.841 6.23,11.536 5.808,11.691 5.391,11.86 4.98,12.054 4.482,12.292 3.994,12.562 3.539,12.918 l -0.08,0.063 -0.03,0.112 c -0.046,0.159 -0.076,0.294 -0.104,0.44 -0.028,0.141 -0.051,0.285 -0.07,0.429 -0.029,0.205 -0.048,0.413 -0.065,0.621 h 0.007 c -0.007,0.08 -0.013,0.16 -0.017,0.241 -0.029,0.577 -0.013,1.154 0.05,1.728 0.061,0.573 0.167,1.14 0.32,1.703 0.08,0.28 0.171,0.555 0.279,0.83 0.053,0.137 0.111,0.273 0.176,0.41 0.032,0.068 0.067,0.135 0.102,0.204 L 4.164,19.8 c 0.022,0.038 0.037,0.065 0.07,0.114 l 0.057,0.09 0.092,0.047 c 0.097,0.05 0.178,0.087 0.266,0.129 l 0.256,0.116 c 0.047,0.019 0.093,0.039 0.142,0.059 -1.167,1.078 -2.435,2.479 -3.532,4.211 L 0.13,26.749 2.075,25.042 c 0.034,-0.029 1.664,-1.44 4.384,-3.041 l 0.038,0.313 0.099,0.789 0.498,4.047 c 0.011,0.077 0.051,0.146 0.115,0.19 l 1.021,0.717 c 0.018,0.057 0.035,0.114 0.052,0.173 0.024,0.081 0.046,0.161 0.071,0.242 l 0.233,0.703 c 0.511,1.589 1.235,3.022 2.116,4.281 -0.042,0.013 -0.085,0.025 -0.127,0.037 -0.531,-0.246 -2.386,-1.106 -3.009,-1.387 l -1.303,-0.585 0.771,1.203 c 0.056,0.087 1.386,2.161 2.471,3.559 1.017,1.305 2.408,2.637 5.032,2.637 0.315,0 0.647,-0.02 0.987,-0.056 0.783,-0.091 1.371,-0.161 1.818,-0.219 2.754,1.014 5.792,1.074 8.675,-0.017 0.79,-0.3 1.509,-0.663 2.168,-1.071 0.014,-0.002 0.027,-0.006 0.039,-0.009 1.072,-0.258 2.289,-0.549 2.89,-0.717 0.096,-0.026 0.217,-0.055 0.342,-0.085 0.837,-0.191 2.236,-0.517 2.981,-2.009 0.751,-1.506 1.977,-3.812 1.989,-3.835 L 37,29.829 35.885,30.314 c -0.061,0.026 -1.475,0.643 -2.21,1.028 -0.025,0.015 -0.057,0.028 -0.086,0.042 0.598,-1.219 0.896,-2.19 1.003,-2.563 l 0.403,-1.663 1.161,-2.597 c 0,0 0.326,-2.839 0.333,-2.837 l 0.114,-1.086 c 0.102,-0.043 0.722,-0.086 0.843,-0.134 0.173,-0.068 0.346,-0.135 0.519,-0.21 l 0.255,-0.116 c 0.09,-0.042 0.17,-0.079 0.267,-0.129 l 0.092,-0.047 0.058,-0.09 c 0.032,-0.049 0.05,-0.077 0.069,-0.114 l 0.056,-0.101 c 0.039,-0.069 0.072,-0.136 0.103,-0.204 0.065,-0.136 0.122,-0.272 0.178,-0.41 0.107,-0.275 0.196,-0.55 0.277,-0.83 0.152,-0.563 0.262,-1.13 0.32,-1.703 0.064,-0.572 0.078,-1.15 0.049,-1.727 z M 13.195,21.83 c 0.025,-0.017 1.068,-0.701 2.771,-1.534 1.698,-0.129 3.571,-0.211 5.578,-0.211 0.488,0 0.967,0.007 1.44,0.015 -0.33,0.266 -0.678,0.517 -1.04,0.734 l -1.203,0.728 c -0.759,0.092 -1.417,0.281 -1.453,0.291 -0.023,0.006 -0.044,0.016 -0.063,0.027 -0.059,0.034 -0.104,0.09 -0.124,0.156 l -1.23,4.051 -6.565,1.459 -2.069,-1.449 -0.602,-4.873 c 1.174,-0.217 2.746,-0.466 4.632,-0.677 -0.202,0.24 -0.399,0.494 -0.584,0.762 l -1.123,1.612 z m 8.86,16.954 c -1.083,0.072 -2.183,-0.055 -3.26,-0.35 0.09,-0.018 0.155,-0.028 0.235,-0.037 0.088,-0.012 2.021,-0.266 2.89,-1.558 l 0.082,0.002 0.216,-0.002 c 0.143,0 0.273,-0.012 0.412,-0.018 0.33,-0.027 0.649,-0.075 0.966,-0.139 0.034,0.033 0.066,0.066 0.101,0.102 0.653,0.647 1.464,1.018 2.355,1.083 -1.499,0.609 -2.91,0.845 -3.997,0.917 z m 0.098,-2.37 c 0.163,-0.363 0.286,-0.646 0.379,-0.859 0.192,0.214 0.435,0.479 0.708,0.762 -0.213,0.032 -0.423,0.059 -0.63,0.076 -0.136,0.006 -0.278,0.021 -0.408,0.021 z m -3.221,-8.362 0.587,-0.132 c 0.097,-0.021 0.173,-0.094 0.202,-0.188 l 1.226,-4.033 c 0.212,-0.028 0.398,-0.043 0.559,-0.043 0.156,0 0.345,0.015 0.556,0.043 l 1.262,4.153 c 0.032,0.106 0.123,0.183 0.231,0.195 l 0.468,0.053 0.12,0.013 8.062,0.917 c 0.067,0.008 0.133,-0.011 0.188,-0.049 l 0.81,-0.566 0.749,-0.524 0.277,-0.195 c -0.045,0.193 -0.095,0.385 -0.147,0.574 -0.077,0.248 -0.159,0.488 -0.241,0.726 -0.331,0.942 -0.702,1.797 -1.106,2.569 -0.11,0.007 -0.229,0.012 -0.354,0.012 -0.392,0 -0.79,-0.032 -1.231,-0.073 -0.766,-0.071 -1.979,-0.21 -2.361,-0.253 -0.333,-0.265 -1.464,-1.162 -2.403,-1.903 -0.036,-0.028 -0.068,-0.058 -0.101,-0.084 -0.165,-0.14 -0.353,-0.298 -0.734,-0.298 -0.348,0 -0.854,0.126 -2.077,0.495 0.637,-0.476 0.642,-1.089 0.642,-1.089 0,0 -0.906,0.844 -2.368,1.03 -1.458,0.188 -2.605,-0.709 -2.605,-0.709 0.048,0.156 0.116,0.509 0.447,0.808 -0.389,-0.045 -0.809,-0.077 -1.25,-0.077 -0.158,0 -0.32,0.004 -0.475,0.012 -0.898,0.048 -2.162,1.404 -3.049,2.773 -0.436,0.138 -1.799,0.571 -3.375,1.034 C 10.51,31.955 9.879,30.648 9.522,29.807 9.314,29.317 9.198,28.984 9.172,28.905 v -0.002 c -0.029,-0.08 -0.06,-0.165 -0.087,-0.25 l 0.378,0.264 v 0.002 l 0.935,0.656 0.312,0.217 c 0.047,0.033 0.104,0.05 0.158,0.05 0.02,0 0.04,-0.002 0.061,-0.006 m 12.977,-7.8 c -0.028,-0.09 -0.098,-0.157 -0.188,-0.184 -0.041,-0.013 -0.852,-0.244 -1.713,-0.317 l 0.158,-0.012 c 0.136,-0.01 2.397,-0.286 5.098,-1.218 2.991,0.229 5.433,0.596 7.103,0.9 l -0.591,4.146 -2.086,1.459 -6.557,-0.745 m 13.171,-9.614 c -0.073,0.534 -0.315,1.574 -0.315,1.574 l -0.189,0.031 c -0.099,-0.027 -1.021,-0.266 -2.609,-0.56 0.051,-0.011 0.1,-0.022 0.148,-0.033 0.329,-0.082 0.653,-0.183 0.968,-0.31 0.156,-0.067 0.312,-0.138 0.459,-0.222 0.146,-0.085 0.289,-0.179 0.401,-0.306 -1.59,0.52 -4.876,0.284 -7.797,-0.018 -2.669,-0.276 -5.348,-0.454 -8.04,-0.46 -2.691,0.006 -5.367,0.185 -8.039,0.46 -2.921,0.302 -6.206,0.538 -7.796,0.018 0.112,0.126 0.256,0.221 0.403,0.306 0.146,0.084 0.301,0.154 0.457,0.222 0.314,0.126 0.64,0.228 0.969,0.31 0.116,0.027 0.234,0.053 0.352,0.074 -1.449,0.275 -2.288,0.493 -2.382,0.519 0,0 -0.334,0.054 -0.407,-0.202 C 4.739,17.342 4.642,16.984 4.569,16.451 4.5,15.92 4.465,15.383 4.469,14.847 4.47,14.759 4.468,14.583 4.468,14.583 c 0.005,-0.18 0.013,-0.36 0.03,-0.54 0.01,-0.133 0.499,-0.559 0.919,-0.801 0.454,-0.264 0.931,-0.502 1.417,-0.723 0.481,-0.228 2.04,-0.559 2.98,-0.729 0.94,-0.172 4.302,-0.618 4.554,-0.712 0.251,-0.096 1.704,-1.216 1.958,-1.309 -0.534,0.088 -7.912,1.215 -8.244,1.32 2.395,-6.263 7.096,-9.313 13.353,-9.313 6.255,0 10.957,2.88 13.354,9.144 -3.164,-0.841 -7.546,-1.233 -8.08,-1.322 0.254,0.093 1.691,1.104 1.958,1.138 2.188,0.284 5.638,1.049 5.888,1.148 0.496,0.201 0.993,0.408 1.475,0.635 0.487,0.221 0.963,0.459 1.417,0.723 0.42,0.243 0.908,0.668 0.92,0.801 0.023,0.268 0.033,0.535 0.036,0.803 0.004,0.536 -0.033,1.074 -0.102,1.605 z"
     id="path26"
     inkscape:connector-curvature="0"
     style="fill:#000000" /></g>
</svg>